PathFileType	4	(X/Y/Z)	/Users/niels/Desktop/University/Third Semester/Perception and Action/Exam/Gymnastics Motion Tracking/Code for Gym Tracking/Scripts/Analyzed Data/Start Salto/st_salto_bad_id11_3_Sports2D/st_salto_bad_id11_3_Sports2D_px_person00.trc
DataRate	CameraRate	NumFrames	NumMarkers	Units	OrigDataRate	OrigDataStartFrame	OrigNumFrames
29.8051948051948	29.8051948051948	7	22	m	29.8051948051948	134	154
Frame#	Time	Hip			RHip			RKnee			RAnkle			RBigToe			RSmallToe			RHeel			LHip			LKnee			LAnkle			LBigToe			LSmallToe			LHeel			Neck			Head			Nose			RShoulder			RElbow			RWrist			LShoulder			LElbow			LWrist		
		X1	Y1	Z1	X2	Y2	Z2	X3	Y3	Z3	X4	Y4	Z4	X5	Y5	Z5	X6	Y6	Z6	X7	Y7	Z7	X8	Y8	Z8	X9	Y9	Z9	X10	Y10	Z10	X11	Y11	Z11	X12	Y12	Z12	X13	Y13	Z13	X14	Y14	Z14	X15	Y15	Z15	X16	Y16	Z16	X17	Y17	Z17	X18	Y18	Z18	X19	Y19	Z19	X20	Y20	Z20	X21	Y21	Z21	X22	Y22	Z22
134	4.495860566448802	1.2175654418098938	-0.549244345388146	0.0	1.2210881952285433	-0.5580043957685576	0.0	1.3542759860600275	-0.6065087675052918	0.0	1.3577798663493936	-0.7396759499967165	0.0	1.411880514863183	-0.7691591116790374	0.0	1.4014799904116577	-0.7744846672300141	0.0	1.3471516146317661	-0.7542102702600446	0.0	1.222949452684145	-0.5334640281721448	0.0	1.3080024747143342	-0.4618432014776877	0.0	1.4284457773427939	-0.39554886932426586	0.0	1.4475034809933494	-0.3405121060809562	0.0	1.4446317035876715	-0.3429981861778951	0.0	1.4449994741124808	-0.3921967542891064	0.0	1.1358248533517585	-0.421643625306018	0.0	1.1130879181447157	-0.34733591808206904	0.0	1.1587711444234432	-0.3734895918728382	0.0	1.1531777570176953	-0.4396345026599996	0.0	1.2253497136566849	-0.510122958276928	0.0	1.306921817440238	-0.53063436739025	0.0	1.1240856047028362	-0.4418462595331163	0.0	1.2030801656554266	-0.4973572305873105	0.0	1.2666523336653506	-0.495049572456444	0.0
135	4.529411764705882	1.2238358255396804	-0.5503702842472508	0.0	1.2275814472854276	-0.5586758993448558	0.0	1.3558173567593574	-0.615813397976298	0.0	1.352300266011648	-0.7483774578452401	0.0	1.4068271405899462	-0.7763865432320507	0.0	1.3957248999552196	-0.7821339393252836	0.0	1.340687041781408	-0.7635582152749778	0.0	1.2298397843105013	-0.5346386076164822	0.0	1.321581346724431	-0.46812860792964683	0.0	1.4443017630743429	-0.40913376718392547	0.0	1.4665787837698607	-0.3564976946369903	0.0	1.4637819458032593	-0.3583276141015918	0.0	1.4615540075838827	-0.4066177007345252	0.0	1.1448115971845756	-0.41771494294999084	0.0	1.1240636958201113	-0.34223851336504596	0.0	1.1691011231461201	-0.37035961150860347	0.0	1.1622008720354544	-0.43644823703547164	0.0	1.2323365523034935	-0.5081297196364305	0.0	1.3135996691456606	-0.5279485610041785	0.0	1.131835258545671	-0.4377907947022834	0.0	1.2104936585285597	-0.4928619992569894	0.0	1.2765656333422417	-0.483191285345803	0.0
136	4.562962962962963	1.2308986424337431	-0.5515829717049585	0.0	1.2344060797126586	-0.559882949298781	0.0	1.357226440759168	-0.6254107543626504	0.0	1.3476907330038133	-0.75713523261015	0.0	1.403184918696641	-0.7822136003873685	0.0	1.3910118442196686	-0.7886620641014246	0.0	1.335452944154603	-0.773085557109331	0.0	1.2381826976503298	-0.5357793105545848	0.0	1.336092509950119	-0.47533389607953963	0.0	1.4613807847879179	-0.42770779540777054	0.0	1.4870950849325595	-0.37809914643483683	0.0	1.484433366219474	-0.37902303026151485	0.0	1.4793297252837994	-0.42692206563002794	0.0	1.1544594847532006	-0.41365554248933123	0.0	1.136159907377905	-0.33744105370870964	0.0	1.1805044840946257	-0.36757836675359207	0.0	1.1717568935665785	-0.43332973246902856	0.0	1.2400446415867405	-0.5064496696559875	0.0	1.3204134090397053	-0.5250059420522494	0.0	1.1409540432664695	-0.4336076311045846	0.0	1.2184273585152428	-0.48844104112451103	0.0	1.2867442185335087	-0.47241148066501554	0.0
137	4.5965141612200435	1.23837749794895	-0.552795446587809	0.0	1.241076916570723	-0.5614591744201545	0.0	1.3589580133231576	-0.6346285706139304	0.0	1.344383180802924	-0.7652161589065708	0.0	1.4010774049606145	-0.7864638586702662	0.0	1.3876117915011836	-0.793680971593956	0.0	1.3318697330732479	-0.7816260117840116	0.0	1.2475458727430568	-0.5370233510656541	0.0	1.3508690285907654	-0.4838470864344482	0.0	1.4784514349987057	-0.4523486330658039	0.0	1.508121695433937	-0.40639607726957	0.0	1.5055307484954805	-0.4064231297228619	0.0	1.496810255936934	-0.45423882031532525	0.0	1.1649671204531828	-0.4094584769994568	0.0	1.1492366674602301	-0.3330758570282004	0.0	1.1928097132528208	-0.3649037901735044	0.0	1.1818762340874645	-0.4301669661622483	0.0	1.248402066368544	-0.5050894891369431	0.0	1.3275806214104482	-0.5217609165104447	0.0	1.1517051305935364	-0.42952126632566123	0.0	1.2266612587882284	-0.48495507540249866	0.0	1.2970979535118161	-0.4652270324447181	0.0
138	4.630065359477125	1.246277466438869	-0.5537962581389115	0.0	1.2476029244327347	-0.5630045992526455	0.0	1.3616050612522046	-0.6427493366886851	0.0	1.3425358909200393	-0.7718331226399234	0.0	1.4001398996644239	-0.7893753452522383	0.0	1.385343567719465	-0.7972124927428587	0.0	1.3298713828785027	-0.7881152296286812	0.0	1.257717081013031	-0.5383727850481604	0.0	1.365585559730474	-0.4943526123685429	0.0	1.4936659120660767	-0.4839247116425703	0.0	1.5281649006803644	-0.4426043451477464	0.0	1.5254081157664843	-0.4417569252144644	0.0	1.5115520024558027	-0.4892276439495433	0.0	1.1766923385674803	-0.4050709199309651	0.0	1.163486419721931	-0.3288814350474258	0.0	1.2060595857623428	-0.3620154193859862	0.0	1.192585079390212	-0.42694234083645544	0.0	1.2573386202097032	-0.5039576415643179	0.0	1.335455389372773	-0.5183911977466993	0.0	1.1645606202378513	-0.4255323610172874	0.0	1.2355670070192142	-0.4828101864350701	0.0	1.3080049670090625	-0.4626247970521538	0.0
139	4.663616557734205	1.2549592039391388	-0.5541848258703598	0.0	1.2544506462509297	-0.5638456378874049	0.0	1.3657393340740296	-0.6491792583514884	0.0	1.341989683351512	-0.7764369892612222	0.0	1.3997263921590406	-0.7914185191233812	0.0	1.383755999944746	-0.7995448899639466	0.0	1.329025047415003	-0.7920976818927783	0.0	1.2687112770368956	-0.5395702490072464	0.0	1.3801685724828194	-0.5076635810304724	0.0	1.5047072172165956	-0.5225359855703408	0.0	1.5449243674217428	-0.4874716770249143	0.0	1.5416301134279198	-0.4856335320661024	0.0	1.5206462952967774	-0.5315818625807254	0.0	1.1899383871667395	-0.4005107892316437	0.0	1.1791954954719324	-0.3244229700173035	0.0	1.2203993878073267	-0.358709257117288	0.0	1.2039001728019054	-0.42375547483324155	0.0	1.266691561111199	-0.5029131150817853	0.0	1.344206567919445	-0.5154303694550948	0.0	1.1799298540335523	-0.42154458235166414	0.0	1.2458487008150507	-0.4820271779662174	0.0	1.3199268595856815	-0.4645714823978017	0.0
140	4.697167755991286	1.2649800107183489	-0.5535256749098467	0.0	1.2623272145881455	-0.5632098330086189	0.0	1.371635715718268	-0.6536715002023765	0.0	1.3423121852421949	-0.7789228249752855	0.0	1.3992264217545285	-0.7930119500618955	0.0	1.3824147863438878	-0.800942240635405	0.0	1.3288154892339437	-0.793863154584021	0.0	1.2807157125687156	-0.5401883121970747	0.0	1.3944521339087586	-0.5244390377557624	0.0	1.5093632678271192	-0.5670055040998089	0.0	1.555598720834161	-0.5402526526465858	0.0	1.5514207923313568	-0.5372929402972406	0.0	1.5216879643871726	-0.5796394165303935	0.0	1.2048091178395273	-0.39588378689229725	0.0	1.1965472210082608	-0.3193722830524816	0.0	1.2359286653499528	-0.3549903259444109	0.0	1.2158602243227195	-0.42073873037840664	0.0	1.2761699590597524	-0.5018601451561676	0.0	1.3536966200967921	-0.5138798474779105	0.0	1.1978872089187764	-0.41746302989644263	0.0	1.2581465177186006	-0.48223919621209344	0.0	1.3329000236912896	-0.47049736586605334	0.0
